# xmcd
#
# Track frame offsets:
#	150
#	20332
#	45305
#	70473
#	92416
#	118376
#	139418
#	162558
#	184834
#	204861
#	224111
#	246205
#	267517
#	293012
#	311512
#
# Disc length: 4450 seconds
#
# Revision: 1
# Processed by: cddbd v1.5.2PL0 Copyright (c) Steve Scherf et al.
# Submitted via: EZCDAudioConverter 8.0.2.1
#
DISCID=e811600f
DTITLE=Mạnh Quỳnh, Chung Tử Lưu, Randy, Quốc Việt - Trả lại Em
DYEAR=1997
DGENRE=blues
TTITLE0=Mạnh Quỳnh - Trả lại Em
TTITLE1=Randy - Loài hoa không tên
TTITLE2=Chung Tử Lưu - Tạ tình
TTITLE3=Randy - Nếu
TTITLE4=Mạnh Quỳnh - Gết người anh yêu
TTITLE5=Randy - Sầu lẻ bóng
TTITLE6=Quốc Việt - Chuyện tình hoa muống biển
TTITLE7=Quốc Việt - Tình như mây khói
TTITLE8=Mạnh Quỳnh - Lá thư cuối cùng
TTITLE9=Randy - Phương trời xứ lạ
TTITLE10=Chung Tu Luu - Nó
TTITLE11=Quốc Việt - Thuở ấy có em
TTITLE12=Mạnh Quỳnh - Trả lời thư em
TTITLE13=Randy - Lời đắng cho cuộc tình
TTITLE14=Chung Tử Lưu - Giã từ
EXTD=
EXTT0=
EXTT1=
EXTT2=
EXTT3=
EXTT4=
EXTT5=
EXTT6=
EXTT7=
EXTT8=
EXTT9=
EXTT10=
EXTT11=
EXTT12=
EXTT13=
EXTT14=
PLAYORDER=
